<svg width="26" height="26" viewBox="0 0 26 26" fill="none" xmlns="http://www.w3.org/2000/svg">
<path d="M12.5425 0.119049C5.68676 0.119049 0.0775146 5.73831 0.0775146 12.6591C0.0775146 18.9167 4.6397 24.1104 10.598 25.0491V16.2885H7.43186V12.6591H10.598V9.89331C10.598 6.75203 12.4552 5.02495 15.3097 5.02495C16.6684 5.02495 18.0894 5.26274 18.0894 5.26274V8.35396H16.5188C14.9732 8.35396 14.487 9.31762 14.487 10.3063V12.6591H17.9523L17.3914 16.2885H14.487V25.0491C17.4243 24.5833 20.099 23.0786 22.0283 20.8065C23.9575 18.5345 25.0142 15.6448 25.0075 12.6591C25.0075 5.73831 19.3982 0.119049 12.5425 0.119049Z" fill="black"/>
</svg>
