<svg width="102" height="56" viewBox="0 0 102 56" fill="none" xmlns="http://www.w3.org/2000/svg">
<path d="M17.276 9.5C17.276 12.6547 16.3613 15.1933 14.532 17.116C12.7027 19.0387 10.2573 20 7.196 20H1.988V0.399997H8.064C10.8453 0.399997 13.076 1.24933 14.756 2.948C16.436 4.64667 17.276 6.83067 17.276 9.5ZM13.048 9.276C13.048 7.52133 12.572 6.14 11.62 5.132C10.668 4.124 9.52 3.62 8.176 3.62H5.936V16.78H7.448C9.016 16.78 10.3413 16.1173 11.424 14.792C12.5067 13.448 13.048 11.6093 13.048 9.276ZM24.0649 20H20.3969V6H23.4769L23.9529 7.26C24.7556 6.66267 25.4462 6.26133 26.0249 6.056C26.6222 5.832 27.3129 5.72 28.0969 5.72C29.5156 5.72 30.5516 6.364 31.2049 7.652C32.2502 6.88667 33.0902 6.37333 33.7249 6.112C34.3782 5.85066 35.0876 5.72 35.8529 5.72C37.0102 5.72 37.9249 6.14933 38.5969 7.008C39.2689 7.848 39.6049 9.08933 39.6049 10.732V20H35.9369V11.712C35.9369 9.99467 35.4236 9.136 34.3969 9.136C33.6316 9.136 32.7542 9.56533 31.7649 10.424V20H28.1249V11.712C28.1249 9.99467 27.6209 9.136 26.6129 9.136C25.8662 9.136 25.0169 9.53733 24.0649 10.34V20ZM46.4833 20.28L41.8913 6H45.5313L48.2473 15.66L50.9913 6H54.5753L49.8993 20C49.3206 21.7173 48.5926 23.0893 47.7153 24.116C46.838 25.1427 45.7366 25.9733 44.4113 26.608L43.0673 24.032C43.814 23.7147 44.514 23.2293 45.1673 22.576C45.8206 21.9413 46.2593 21.176 46.4833 20.28ZM56.7335 16.976V9.08H55.3055V6H56.7615V1.996H60.3735V6H63.3135V9.08H60.3455V15.184C60.3455 16.4347 60.7281 17.06 61.4935 17.06C61.9228 17.06 62.3801 17.004 62.8655 16.892L63.4535 19.804C62.5948 20.0467 61.6801 20.168 60.7095 20.168C59.7575 20.168 58.8521 19.9253 57.9935 19.44C57.1535 18.936 56.7335 18.1147 56.7335 16.976ZM70.2212 10.704V20H66.5532V6H69.4652L69.8012 7.372C70.5478 6.77467 71.1732 6.35467 71.6772 6.112C72.1812 5.85066 72.6198 5.72 72.9932 5.72C73.3852 5.72 73.6465 5.72933 73.7772 5.748C73.9078 5.748 74.0198 5.75733 74.1132 5.776C74.2065 5.79467 74.3652 5.832 74.5892 5.888L74.2532 9.22C73.9172 9.108 73.4598 9.052 72.8812 9.052C72.0972 9.052 71.2105 9.60267 70.2212 10.704ZM89.0547 13.028C89.0547 15.268 88.4853 17.0227 87.3467 18.292C86.208 19.5613 84.5933 20.196 82.5027 20.196C80.412 20.196 78.8253 19.5613 77.7427 18.292C76.66 17.0227 76.1187 15.2587 76.1187 13C76.1187 10.7413 76.66 8.968 77.7427 7.68C78.8253 6.37333 80.384 5.72 82.4187 5.72C84.4533 5.72 86.068 6.38266 87.2627 7.708C88.4573 9.01467 89.0547 10.788 89.0547 13.028ZM85.3307 12.972C85.3307 10.116 84.416 8.688 82.5867 8.688C80.72 8.688 79.7867 10.1067 79.7867 12.944C79.7867 15.7813 80.7293 17.2 82.6147 17.2C83.6227 17.2 84.3227 16.8453 84.7147 16.136C85.1253 15.408 85.3307 14.3533 85.3307 12.972ZM9.044 55.14C6.3 55.14 4.228 54.1973 2.828 52.312C1.428 50.408 0.728 47.9907 0.728 45.06C0.728 42.1293 1.428 39.74 2.828 37.892C4.24667 36.044 6.31867 35.12 9.044 35.12C11.788 35.12 13.8693 36.044 15.288 37.892C16.7067 39.74 17.416 42.1293 17.416 45.06C17.416 49.0733 16.1933 51.9667 13.748 53.74C12.46 54.6733 10.892 55.14 9.044 55.14ZM9.1 38.34C8.11067 38.34 7.28 38.6853 6.608 39.376C5.41333 40.5707 4.816 42.4653 4.816 45.06C4.816 47.02 5.18 48.6533 5.908 49.96C6.636 51.248 7.7 51.892 9.1 51.892C10.5187 51.892 11.5827 51.2387 12.292 49.932C13.0013 48.6067 13.356 47.0013 13.356 45.116C13.356 43.212 12.9733 41.6067 12.208 40.3C11.4613 38.9933 10.4253 38.34 9.1 38.34ZM24.0923 45.704V55H20.4243V41H23.3363L23.6723 42.372C24.4189 41.7747 25.0443 41.3547 25.5483 41.112C26.0523 40.8507 26.4909 40.72 26.8643 40.72C27.2563 40.72 27.5176 40.7293 27.6483 40.748C27.7789 40.748 27.8909 40.7573 27.9843 40.776C28.0776 40.7947 28.2363 40.832 28.4603 40.888L28.1243 44.22C27.7883 44.108 27.3309 44.052 26.7523 44.052C25.9683 44.052 25.0816 44.6027 24.0923 45.704ZM35.0018 55H31.3618V35.4H35.0018V55ZM50.003 54.132C48.2296 54.8227 46.587 55.168 45.075 55.168C40.6883 55.168 38.495 52.7973 38.495 48.056C38.495 45.648 39.027 43.828 40.091 42.596C41.155 41.3453 42.7043 40.72 44.739 40.72C46.419 40.72 47.763 41.2427 48.771 42.288C49.779 43.3333 50.283 44.8827 50.283 46.936C50.283 47.7573 50.2456 48.476 50.171 49.092H42.079C42.079 50.1933 42.3776 51.0053 42.975 51.528C43.5723 52.0507 44.375 52.312 45.383 52.312C46.391 52.312 47.7256 52.088 49.387 51.64L50.003 54.132ZM46.783 46.516V46.32C46.783 45.4613 46.5963 44.7707 46.223 44.248C45.8496 43.7253 45.2616 43.464 44.459 43.464C43.6563 43.464 43.059 43.7533 42.667 44.332C42.275 44.9107 42.0696 45.6387 42.051 46.516H46.783ZM65.5463 55H61.8503V46.628C61.8503 45.8627 61.7009 45.2467 61.4023 44.78C61.1036 44.2947 60.6089 44.052 59.9183 44.052C59.2276 44.052 58.3689 44.4813 57.3423 45.34V55H53.6743V41H56.7543L57.3423 42.26C58.1449 41.6627 58.8356 41.2613 59.4143 41.056C60.0116 40.832 60.7023 40.72 61.4863 40.72C62.7369 40.72 63.7263 41.14 64.4543 41.98C65.1823 42.8013 65.5463 44.024 65.5463 45.648V55ZM70.0805 35.4H73.7205V46.068L78.0885 41H82.2045L77.0805 46.712L82.6525 55H78.7045L74.9245 48.952L73.7205 50.352V55H70.0805V35.4ZM96.8476 48.028C96.8476 50.268 96.2783 52.0227 95.1396 53.292C94.001 54.5613 92.3863 55.196 90.2956 55.196C88.205 55.196 86.6183 54.5613 85.5356 53.292C84.453 52.0227 83.9116 50.2587 83.9116 48C83.9116 45.7413 84.453 43.968 85.5356 42.68C86.6183 41.3733 88.177 40.72 90.2116 40.72C92.2463 40.72 93.861 41.3827 95.0556 42.708C96.2503 44.0147 96.8476 45.788 96.8476 48.028ZM93.1236 47.972C93.1236 45.116 92.209 43.688 90.3796 43.688C88.513 43.688 87.5796 45.1067 87.5796 47.944C87.5796 50.7813 88.5223 52.2 90.4076 52.2C91.4156 52.2 92.1156 51.8453 92.5076 51.136C92.9183 50.408 93.1236 49.3533 93.1236 47.972ZM101.953 55H98.7333V51.192H101.953V55Z" fill="black"/>
</svg>
