<svg width="25" height="25" viewBox="0 0 25 25" fill="none" xmlns="http://www.w3.org/2000/svg">
<path d="M12.715 0.25C5.83432 0.25 0.25 5.83432 0.25 12.715C0.25 19.5957 5.83432 25.18 12.715 25.18C19.5957 25.18 25.18 19.5957 25.18 12.715C25.18 5.83432 19.5957 0.25 12.715 0.25ZM18.4988 8.7262C18.3118 10.6957 17.5016 15.4822 17.0902 17.6885C16.9157 18.6234 16.5667 18.935 16.2426 18.9724C15.5196 19.0348 14.9712 18.4988 14.2731 18.0376C13.1762 17.3146 12.553 16.8658 11.4934 16.1678C10.2594 15.3576 11.0572 14.9088 11.7677 14.1859C11.9546 13.9989 15.1457 11.0945 15.208 10.8328C15.2167 10.7931 15.2155 10.752 15.2046 10.7129C15.1938 10.6738 15.1735 10.6379 15.1457 10.6084C15.0709 10.5461 14.9712 10.571 14.8839 10.5835C14.7717 10.6084 13.0266 11.7677 9.62368 14.0612C9.12508 14.3978 8.67634 14.5723 8.27746 14.5598C7.82872 14.5474 6.9811 14.3105 6.34538 14.0986C5.56009 13.8493 4.9493 13.7122 4.99916 13.2759C5.02409 13.0516 5.33572 12.8272 5.92158 12.5903C9.56136 11.0073 11.9796 9.96024 13.1887 9.46164C16.6539 8.0157 17.3644 7.76639 17.8381 7.76639C17.9378 7.76639 18.1747 7.79132 18.3243 7.91597C18.4489 8.01569 18.4863 8.15281 18.4988 8.25253C18.4863 8.32732 18.5112 8.55169 18.4988 8.7262Z" fill="black"/>
</svg>
